<svg width="89" height="16" viewBox="0 0 89 16" fill="none" xmlns="http://www.w3.org/2000/svg">
<path d="M10.1186 0.363636H0.845881V12H2.93679V2.11364H8.0277V12H10.1186V0.363636ZM16.3558 12.1705C18.9126 12.1705 20.5376 10.3693 20.5376 7.67045C20.5376 4.96591 18.9126 3.15909 16.3558 3.15909C13.799 3.15909 12.174 4.96591 12.174 7.67045C12.174 10.3693 13.799 12.1705 16.3558 12.1705ZM16.3672 10.5227C14.9524 10.5227 14.2592 9.26136 14.2592 7.66477C14.2592 6.06818 14.9524 4.78977 16.3672 4.78977C17.7592 4.78977 18.4524 6.06818 18.4524 7.66477C18.4524 9.26136 17.7592 10.5227 16.3672 10.5227ZM21.5107 14.5341H23.5334V12H29.2436V14.5341H31.2322V10.3068H29.88V3.27273H23.5732L23.3232 6.32955C23.1584 8.28409 22.9425 9.73295 22.2038 10.3068H21.5107V14.5341ZM24.3175 10.3068C24.8686 9.49432 25.0732 8.17614 25.2209 6.32955L25.3572 4.93182H27.9141V10.3068H24.3175ZM32.7678 15.2727H34.8246V10.625H34.9098C35.2337 11.2614 35.9098 12.1534 37.4098 12.1534C39.4666 12.1534 41.0064 10.5227 41.0064 7.64773C41.0064 4.73864 39.4212 3.15909 37.4041 3.15909C35.8643 3.15909 35.2223 4.08523 34.9098 4.71591H34.7905V3.27273H32.7678V15.2727ZM34.7848 7.63636C34.7848 5.94318 35.5121 4.84659 36.8359 4.84659C38.2053 4.84659 38.9098 6.01136 38.9098 7.63636C38.9098 9.27273 38.1939 10.4659 36.8359 10.4659C35.5234 10.4659 34.7848 9.32955 34.7848 7.63636ZM46.5746 12.1705C49.1314 12.1705 50.7564 10.3693 50.7564 7.67045C50.7564 4.96591 49.1314 3.15909 46.5746 3.15909C44.0178 3.15909 42.3928 4.96591 42.3928 7.67045C42.3928 10.3693 44.0178 12.1705 46.5746 12.1705ZM46.5859 10.5227C45.1712 10.5227 44.478 9.26136 44.478 7.66477C44.478 6.06818 45.1712 4.78977 46.5859 4.78977C47.978 4.78977 48.6712 6.06818 48.6712 7.66477C48.6712 9.26136 47.978 10.5227 46.5859 10.5227ZM59.4964 0.045454C59.076 0.363636 58.4112 0.357954 57.5078 0.357954C57.2521 0.357954 56.9851 0.357954 56.6953 0.363636C53.6896 0.403409 52.1442 2.40341 52.1442 6.50568V7.28977C52.1442 10.483 53.7578 12.1705 56.2976 12.1705C58.8374 12.1705 60.4396 10.4773 60.4396 7.78409C60.4396 5.17045 58.9169 3.66477 56.7521 3.66477C55.4226 3.66477 54.4169 4.23864 53.8714 5.30682H53.7749C53.9794 3.13068 54.7976 2.14773 56.7521 2.10227C58.4851 2.0625 59.4567 2.03409 60.2124 1.375L59.4964 0.045454ZM56.3089 10.5227C55.0192 10.5227 54.2294 9.48864 54.2294 7.84091C54.2464 6.21591 55.0249 5.28409 56.2976 5.28409C57.5703 5.28409 58.3544 6.21591 58.3544 7.84091C58.3544 9.49432 57.576 10.5227 56.3089 10.5227ZM64.1726 3.27273H62.1896V12H64.1726V8.47159H67.5533V12H69.5305V3.27273H67.5533V6.78409H64.1726V3.27273ZM75.4751 12.1705C77.5092 12.1705 78.907 11.1761 79.2706 9.65909L77.3501 9.44318C77.0717 10.1818 76.3899 10.5682 75.5036 10.5682C74.174 10.5682 73.2933 9.69318 73.2763 8.19886H79.3558V7.56818C79.3558 4.50568 77.5149 3.15909 75.3672 3.15909C72.8672 3.15909 71.2365 4.99432 71.2365 7.6875C71.2365 10.4261 72.8445 12.1705 75.4751 12.1705ZM73.282 6.8125C73.3445 5.69886 74.1683 4.76136 75.3956 4.76136C76.5774 4.76136 77.3729 5.625 77.3842 6.8125H73.282ZM84.9595 12.1705C86.9936 12.1705 88.3913 11.1761 88.755 9.65909L86.8345 9.44318C86.5561 10.1818 85.8743 10.5682 84.9879 10.5682C83.6584 10.5682 82.7777 9.69318 82.7607 8.19886H88.8402V7.56818C88.8402 4.50568 86.9993 3.15909 84.8516 3.15909C82.3516 3.15909 80.7209 4.99432 80.7209 7.6875C80.7209 10.4261 82.3288 12.1705 84.9595 12.1705ZM82.7663 6.8125C82.8288 5.69886 83.6527 4.76136 84.88 4.76136C86.0618 4.76136 86.8572 5.625 86.8686 6.8125H82.7663Z" fill="#222222"/>
</svg>
